<svg width="955" height="986" viewBox="0 0 955 986" fill="none" xmlns="http://www.w3.org/2000/svg">
<path d="M954.6 477.37C920.64 401.31 816.53 288.55 726.12 228.69C666.26 138.26 553.42 34.05 477.3 0C401.18 34.05 288.35 138.27 228.48 228.69C138.06 288.54 33.96 401.3 0 477.37C15.12 511.17 43.26 551.61 80.97 594.44C43.3 637.14 15.16 677.55 0 711.44C41.54 804.1 181.92 944.48 274.58 986.01C317.87 966.61 371.52 926.34 425.34 873.58L477.29 963.56L529.24 873.58C583.06 926.34 636.72 966.61 680 986.01C772.66 944.49 913.04 804.1 954.58 711.44C939.42 677.55 911.28 637.14 873.61 594.44C911.32 551.61 939.46 511.18 954.58 477.37H954.6ZM879.85 477.37C836.28 547.84 747.31 635.76 680.02 677.19C671.07 671.73 661.24 665.05 650.76 657.3C679.35 557.79 614.45 451.3 512.66 431.78C560.27 371.99 628.07 309.46 680.02 277.55C755.1 324.38 839.95 412.74 879.85 477.37ZM477.3 74.75C527.95 105.83 592.99 165.27 640.88 224.19C588.8 257.18 526.78 312.77 477.3 370.85C427.82 312.77 365.8 257.18 313.72 224.19C361.61 165.27 426.65 105.83 477.3 74.75ZM74.75 477.37C114.65 412.74 199.5 324.38 274.58 277.55C326.53 309.46 394.33 371.99 441.94 431.78C340.15 451.3 275.25 557.8 303.84 657.3C293.35 665.04 283.53 671.72 274.58 677.19C207.29 635.76 118.32 547.84 74.75 477.37ZM274.58 911.25C206.72 869.62 116.2 779.11 74.75 711.43C87.5 690.66 105.39 666.87 126.74 642.34C179.69 693.84 232.28 733.1 274.58 751.93C293.28 743.59 312.91 731.95 334.89 716.27L391.18 814.26C351.44 854.85 309.17 890 274.57 911.24H274.58V911.25ZM477.3 831.45C463.86 808.16 405.42 706.88 405.42 706.88L430.07 664.08C430.07 664.08 379.36 633.07 364.37 623.93C354.1 556.67 409.93 493.5 477.3 494.26C544.67 493.5 600.5 556.67 590.23 623.93C575.24 633.07 524.53 664.08 524.53 664.08L549.18 706.88C549.18 706.88 490.75 808.16 477.3 831.45ZM879.85 711.43C838.4 779.11 747.87 869.62 680.02 911.25C645.42 890.01 603.15 854.86 563.41 814.27L619.7 716.28C641.68 731.96 661.31 743.6 680.01 751.94C722.32 733.1 774.91 693.85 827.85 642.35C849.2 666.87 867.09 690.66 879.84 711.44H879.85V711.43Z" fill="#F0EBE0"/>
</svg>
